<?xml version="1.0" ?><svg enable-background="new 0 0 52 52" id="Layer_1" version="1.1" viewBox="0 0 52 52" xml:space="preserve" xmlns="http://www.w3.org/2000/svg" xmlns:xlink="http://www.w3.org/1999/xlink"><g><path d="M49.6509552,21.641058c-0.1900024-0.2700195-0.4899902-0.4299927-0.8199463-0.4299927l-8.5177002,0.0098877   l-2.7353516-0.3135376l0.9530029-2.5463867c0.0900269-0.25,0.0800171-0.5199585-0.0299683-0.7699585   c-0.1099854-0.2400513-0.3099976-0.4200439-0.5599976-0.5200195L15.4609547,8.6610174   c-0.5199585-0.1900024-1.0899658,0.0700073-1.289978,0.5900269L8.5710011,24.2410336   c-0.2000122,0.5100098,0.0700073,1.0900269,0.5799561,1.2800293l14.0158081,5.2434082v4.6359882H10.1709766V34.011055   c0-2.540041-2.0700073-4.6099873-4.6099858-4.6099873H2.1709764v14.0000019h3.3900144   c2.5399785,0,4.6099858-2.0700073,4.6099858-4.6100464v-1.390564h14.9957886V31.512701l6.4642334,2.4183369   c0.1199951,0.039978,0.2399902,0.0700073,0.3499756,0.0700073c0.4100323,0,0.7900372-0.25,0.9400005-0.6500244l1.5368652-4.1065083   l3.3930664-0.3659668l6.1200562,5.3325214c0.1799927,0.1599731,0.4200439,0.2399902,0.6500244,0.2399902   c0.0899658,0,0.1699829-0.0100098,0.25-0.0300293c0.3200073-0.0799561,0.5800171-0.3099976,0.6900024-0.6199951   l4.2000122-11.2399921C49.8809967,22.2610531,49.8409576,21.9110165,49.6509552,21.641058z M22.0954762,16.7720394   c-0.15625,0.390625-0.5322266,0.6289063-0.9287109,0.6289063c-0.1240234,0-0.25-0.0234375-0.3710938-0.0717773l-2.5-1   c-0.5126953-0.2055664-0.7626953-0.7871084-0.5576172-1.300292c0.2050781-0.5126953,0.7910156-0.7612305,1.2998047-0.5571289l2.5,1   C22.0505543,15.6773138,22.3005543,16.2588558,22.0954762,16.7720394z" fill="#3A92CC"/></g></svg>
